/* XPM */
static char *back_dis_xpm[] = {
"20 20 4 1",
"  c None	s mask",
"# c lightgray	s shade0",
". c gray	s shade1",
"h c darkgray	s shade2",
"                    ",
"                    ",
"                    ",
"                    ",
"       h            ",
"      hh#           ",
"     h.h#           ",
"    h.#hhhhhhhhhhh  ",
"   h.#..#########h# ",
"  h.#............h# ",
"   h.............h# ",
"    h..hhhhhhhhhhh# ",
"     h.h########### ",
"      hh#           ",
"       h#           ",
"        #           ",
"                    ",
"                    ",
"                    ",
"                    "
};
