/* XPM */
static char *back_arm_xpm[] = {
"20 20 5 1",
"  c None	s mask",
". c white 	s white",
"a c lightgray 	s shade0",
"n c navy		s style",
"m c darkgrey	s shade2",
"                    ",
"                    ",
"                    ",
"                    ",
"       n            ",
"      nn            ",
"     n.n            ",
"    n..nnnnnnnnnnn  ",
"   n..a..........n  ",
"  n..aaaaaaaaaaaanmm",
"   n.aaaaaaaaaaaanmm",
"  mmn.annnnnnnnnnnmm",
"   mmn.nmmmmmmmmmmmm",
"    mmnnm           ",
"     mmnm           ",
"      mmm           ",
"       mm           ",
"        m           ",
"                    ",
"                    "
};
