/* XPM */
static char * dalecki_xpm[] = {
/* width height num_colors chars_per_pixel */
"51 62 13 1",
/* colors */
" 	c white",
"&	c #eee",
"X	c #ddd",
"*	c #ccc",
"y	c #bbb",
"s	c #aaa",
"=	c #999",
"%	c #888",
"$	c #777",
"+	c #666",
"<	c #555",
"3	c #444",
"0	c black",
/* pixels */
"                                                   ",
"                     X%+++$$$$$$$%&                ",
"             *======%$+<+++<++<<<<%                ",
"           &*%$++++++<<3<<<<<<3<<<$&               ",
"          &y%+<<<3<<<3<<<<<<<<33<<+=               ",
"        &ys=+<33333<30000003<0333<++%X             ",
"       X%$%$+<<<3330000<3<<000<<+++<<+=X           ",
"     Xs%+++<<<<300000000000000<30++<<<<+=X         ",
"    *%++<<<33033000033<0330<+<<<0<+<<<+++%&        ",
"   =$+<<3330000000000000000<<+<<++++++++++=        ",
"  =$+333000000030000000333<<<+33<<<<<<3<<<+y       ",
"  =$+33000000033000003<<3<++++++++++<33<33<$*      ",
" &=$+<30000033333333<<<++$%%$$$$+++++<33<3<+%X     ",
"  =$+30000003333333<<++$%s*XX*yyys%%$+<<333<+%y    ",
"  y$+<003003<<<<<<<<+$=yX      &&&Xy=%$+<<3<<+%X   ",
"  s$33003033++$$$$+$=*&           &XX*=$<<<<3+%*   ",
"  =$+<3333<+$%%%=%=y&             &&&Xs%+333<<<%   ",
"  s$<<333<$%=s**XX&              &&& &X=$++<<<<+s  ",
"  s+<333<$%=s*XX&                 &&&XX*%++<<<3<$& ",
"  s<3333+%=ss*X&&                  &&XXX=$<30033+& ",
"  y<333<+%ssyX&&&               && &&X*Xs+<<0003+  ",
"   +333<%sssy*X&&               &&&&&XyXy$<30033$  ",
"    +33<%=ssy*X&&                 & &Xy**%+<3003$  ",
"     <<<%=ss**XXX&                &&&X*y*=$+3003%  ",
"     +3<$%sssXX&&                  &&&*yy=$+3333*  ",
"     +3<$%sy*XX&&                  &&&*sys=+333<&  ",
"     =<<$%sXXXX&&            &X*yyyssyysss=$3<<<&  ",
"     s<<$%=ss===s*X&     &*ys%$$$$%=%%$%s=s$<33+   ",
"     s<<%%%$+++++$%=*&&&&*s=%$$%sy****s===s%<3<+   ",
"      <<%$+$$%%$$$$%s*&&&*s%%%$$$$$%=ssss==%+<<%   ",
"      <<$$%%%%$$$$$$$=X&&Xs%%$%%%$+%$$%sy=s%+<<s   ",
"      +<$%%$++$++%$$$%y&&Xs%%%y*%$%s%%=sys=%+<+X   ",
"      s$$%$$<+%$$=y%%%y&&Xs=sysssyX*syy*X*s%$$%**  ",
"      &y$%$$+%=%%s===%sXX*syyX*y**XX*X*XX*s%+=Xs%s ",
"        $%%%%=====ss=%=yX*syyXXXX&&XX&XXX*s%+syy== ",
"       &%==%=s=sy**y=%=s*yssyX&&&&&X&&XXXyy%+%*X=s ",
"      Xs$%=sssy***X*s%=s**=syX&&  &XX&XXXys%+$*Xss ",
"      X%$==sssyy*XX*s%%s**==sy&      &XXXy=%$%=*=y ",
"       y$%==syy*XXX*=%=sX*ssss*      &XXXy=%$ss*s& ",
"       X$%==syyXXXXy=%sss=%%sssX     &XXXy=%$syy*  ",
"       &%%==syXXXXXs=$%=%$<3+%=y&   &&XX*s=%%sys&  ",
"        y===syXX&&y=$3+$++$$$$syX&  &XX*ys%%%yss   ",
"         ==%=s*XXXy=$+++$%%%==yXX&&&&X*yys%$%**&   ",
"         y=%=sy*XX*s%$$$$%$$=y*XXX&&&X*yss%$=y*    ",
"         *=%%sy*XXy=$$%$%$$$%syXXX&&&X*ys=%$=s&    ",
"          s%%=syyy=$$$%%%$%$$$=y*X&XXX*ys%%$       ",
"          *%%=sys=$+%%$$$%%$$$$$syXXXX*s=%%$       ",
"          X=%==s=$+$$+<<<++<+$++$%sy**y==%$        ",
"          &=%=%%$+<<3<<++<<<<<<<++%=y*s=%%$        ",
"           s%%%$+<33<+$%$%%%$$+<<<+%sys%%$=        ",
"           &%%%$++++$$$$$$$%%===%$$$==%%%$         ",
"            $$$+++%%%$$+<+$%%=ss=%$$%%%%$=         ",
"            &%$+<$%%%$+<<<$%%sss=%$+%%$$$          ",
"             $$+<%%==%$<<+$==ss=%$++$$$$=          ",
"             &+<<+%===%$+$%ssss=%$++$$++           ",
"              +<3+%===%$$$%==s=%$$<<+$+            ",
"               +3+$$%%$$$$%%%%$+++33<<             ",
"                33<+$$$$$%$$$$<<<<<3+              ",
"                 333++$$$$$$++30333                ",
"                  333<<<<<<<<3003+                 ",
"                    $3333333333+                   ",
"                                                   "};
