/* XPM */
static char *fwrd_arm_xpm[] = {
"20 20 5 1",
"  c None	s mask",
". c white	s white",
"a c lightgray	s shade0",
"n c navy	s style",
"m c darkgray	s shade2",
"                    ",
"                    ",
"                    ",
"                    ",
"            n       ",
"            nn      ",
"            n.n     ",
"  nnnnnnnnnnn..n    ",
"  n..........a..n   ",
"  n.aaaaaaaaaaa..n  ",
"  n.aaaaaaaaaaa.nmm ",
"  nnnnnnnnnnna.nmm  ",
"    mmmmmmmmn.nmm   ",
"            nnmm    ",
"            nmm     ",
"            mm      ",
"            m       ",
"                    ",
"                    ",
"                    "
};
