/* XPM */
static char *home_xpm[] = {
"20 20 5 1",
"  c None	s mask",
"n c navy	s style",
"m c grey50 	s shade2",
"a c grey	s shade0",
". c white",
"                    ",
"                    ",
"    nnn  n          ",
"    n.n n.n         ",
"    n.nn.aan        ",
"    n.n.anaan       ",
"    n.aananaan      ",
"    n.anaaanaan     ",
"   n.anaaaaanaan    ",
"  n.anaaaaaaanaan   ",
" nnnnaaaaaaaaannnn  ",
"   n.aaannn.aaanmm  ",
"   n.aaanmm.aaanmmm ",
"   n.aaanmm.aaanmm  ",
"   n.aaanmm.aaanmm  ",
"   n.aaanmm.aaanmm  ",
"   nnnnnnmmnnnnnmm  ",
"     mmmmmm  mmmmm  ",
"     mmmmmm  mmmmm  ",
"                    "
};
