/* XPM */
static char * icon_xpm[] = {
"46 45 9 1",
" 	s none	c none",
".	c grey",
"X	c grey50",
"o	c magenta",
"O	c red",
"+	c black",
"@	c blue",
"#	c white",
"$	c darkred",
"                                              ",
"          .........                           ",
"          .X.....XX                           ",
"          .X.o.OXXX........      X......X     ",
"     .....XXo.oXOXX......XX.....XX.X...X+     ",
"     X++..XX.oXOXXX+++++++XX.@.@XX.X....X     ",
"     XX..XXXo.oXOX+#######+X@.XXXX.X..XX+     ",
"     X...XXXXoXOX+#########+X@X@XX.X..XXX     ",
"     X.XXXXXo.oX+####+++####+.XXXX.X..XX+     ",
"     X.XXXXXXoXO+###+XXX+###+XX@XX.X.XXXX     ",
"     X...XXXoXoX+###+XXX+###+.XXXX.X..XX+     ",
"     X.XXXXXXoXO+###+XXX+###+XX@XX.X.XXXX     ",
"     X..XXXXo.oX++++XXX+####+.XXXX.X.XXX+     ",
"     X...XXXXoXOXXX.XX+####+@XX@XX.X.XXXX     ",
"     X.XXXXXo.oXOXX.X+####+XX.XXXX.X.XXX+     ",
"     X...XXXXoXOXXX.+####+.X@XX@XX.X.XXXX     ",
"     X.XXXXXoXoXOXX.+###+XXXX.XXXX.X..XX+     ",
"     X...XXXXoXOXXX.+###+XXXXXX@XX.X..XXX     ",
"     X.XXXXXoXoXOXX.X+++XXXX@.XXXX.X.XXX+     ",
"     X...XXXXoXOXXX.+###+XXXXXX@XX.X.XXXX     ",
"     X...XXXo.oXOXX.+###+XXX@.XXXX.X..XX+     ",
"     X...XXXXoXOXXX.+###+XXXXXX@XX.X..XXX     ",
"     X...XXXo.oXOXX.+++++XXX@.XXXX.X..XX+     ",
"     X...XXXXoXOXXX.XXXXXXXXXXX@XX.X..XXX     ",
"     X...XXXo.oXOXX..XXXXXXX@.XXXX.X..XX+     ",
"     X...XXXXoXOXXX.XXXXXXXXXXX@XX.X.XXXX     ",
"     X.XXXXXo.oXOXX.XXXXXXXX@.XXXX.X..XX+     ",
"     X...XXXXoXOXXX.X.XXXXXXXXX@XX.X..XXX     ",
"          XXXXXXXXX.XXXXXXXX@.X.X             ",
"                   .XXXXXXX                   ",
"                 OOOO                         ",
"                 OOO$             OO          ",
"                 OOO$            OOOO         ",
"                 O$$$           OO$ O         ",
"                                OO$           ",
"                                OO$           ",
"                                OO$           ",
"  OOO OOOO  OOOO  OOO OOO OOOO  OOOOO  OOOOO  ",
"  OOOO$$OOOO$$OO$ OO$ OOOO$$OO$ OOOO$ OO$$$OO ",
"  OOO$  OOO$  OO$ OO$ OOO$  OO$ OO$  OO$   OO$",
"  OO$   OO$   OO$ OO$ OO$   OO$ OO$  OO$   OO$",
"  OO$   OO$   OO$ OO$ OO$   OO$ OO$  OO$   OO$",
"  OO$   OO$   OO$ OO$ OO$   OO$ OO$  OOO   OO$",
"  OO$   OO$   OO$ OO$ OO$   OO$ OO$   OOOOOO$ ",
"  O$$   O$$   O$$ O$$ O$$   O$$ O$$    $$$$$  "};
