/* XPM */
static char *next_arm_xpm[] = {
"20 20 5 1",
"  c None	s mask",
". c white",
"a c grey	s shade0",
"n c navy	s style",
"m c grey50	s shade2",
"                    ",
"                    ",
"                    ",
"                    ",
"             n      ",
"             nn     ",
"             n.n    ",
"   nnnm nnnnnn..n   ",
"  nm.mn n.....a..n  ",
"  n..anmn.aaaaaa..n ",
"  nmamnmn.aaaaaa.nmm",
"  mnnnmmnnnnnna.nmm ",
"   mmmmm mmmmn.nmm  ",
"             nnmm   ",
"             nmm    ",
"              m     ",
"                    ",
"                    ",
"                    ",
"                    "
};
