/* XPM */
static char *next_dis_xpm[] = {
" 20 20 3 1",
"  c None	s mask",
"# c lightgray	s shade0",
"h c grey50	s shade2",
"                    ",
"                    ",
"                    ",
"                    ",
"             h      ",
"             hh     ",
"             h#h    ",
"   hhh  hhhhhh# h   ",
"  h ##h h######  h  ",
"  h#  h#h#        h ",
"  h#  h#h#       h #",
"   hhh #hhhhhh  h # ",
"    ###  ####h#h #  ",
"             hh #   ",
"             h #    ",
"              #     ",
"                    ",
"                    ",
"                    ",
"                    "
};
