/* XPM */
static char *prev_arm_xpm[] = {
"20 20 5 1",
"  c None	s mask",
". c white",
"a c grey	s shade0",
"j c navy	s style",
"m c grey50	s shade2",
"                    ",
"                    ",
"                    ",
"                    ",
"     j              ",
"    jj              ",
"   j.j              ",
"  j..jjjjjj mjjjm   ",
" j..a.....j jm.mjmm ",
"j..aaaaaaajmj..ajmm ",
" j.aaaaaaajmjmamjmm ",
"mmj.ajjjjjjmmjjjmmm ",
" mmj.jmmmmmm mmmmm  ",
"  mmjjm             ",
"   mmjm             ",
"    mmm             ",
"     mm             ",
"      m             ",
"                    ",
"                    "
};
