/* XPM */
static char *prev_dis_xpm[] = {
"20 20 3 1",
"  c None	s mask",
"# c lightgray	s shade0",
"h c grey50	s shade2",
"                    ",
"                    ",
"                    ",
"                    ",
"      h             ",
"     hh#            ",
"    h h#            ",
"   h #hhhhhh  hhh   ",
"  h #  ####h#h ##h  ",
" h #       h#h#  h# ",
"  h        h#h#  h# ",
"   h  hhhhhh# hhh # ",
"    h h######  ###  ",
"     hh#            ",
"      h#            ",
"       #            ",
"                    ",
"                    ",
"                    ",
"                    ",};
