/* XPM */
static char *search_xpm[] = {
/* width height num_colors chars_per_pixel */
"    20    20       5           1",
/* colors */
"  c None	s mask",
". c white	s white",
"a c gray	s shade1",
"n c navy	s style",
"m c darkgray	s shade2",
/* pixels */
"                    ",
"                    ",
"      nn    nn      ",
"     .anmm .anmm    ",
"     annmm annmm    ",
"      m.aanaammmm   ",
"   annnnanannnnnmm  ",
"  aa..aaamnaa..mnmm ",
"  n..aaa.anaa.aanmm ",
"  n...aannnaa.aanmm ",
"  n.mnnn.aannnmmnmm ",
"  n.mmnmmnnanmamnmm ",
"  n.amnmmmmmn.amnmm ",
"  n.amnmmmmmn.amnmm ",
"  nnnnnmm   nnnnnmm ",
"  n.aanmm   n.aanmm ",
"  nnnnnmm   nnnnnmm ",
"   mmmmmm    mmmmmm ",
"   mmmmmm    mmmmmm ",
"                    "};
