/* XPM */
static char *top_arm_xpm[] = {
"20 20 5 1",
/* colors */
"  c None	s mask",
". c white",
"a c grey	s shade0",
"n c navy	s style",
"m c grey50	s shade2",
"                    ",
"         n m        ",
"        n.nmm       ",
"       n...nmm      ",
"      n..aa.nmm     ",
"     n..aaaa.nmm    ",
"    nnnn.aannnnmm   ",
"       n.aanmmmmmm  ",
"       n.aanm       ",
"       n.aanm       ",
"       n.aanm       ",
"       nnnnnm       ",
"         mmmm       ",
"       mnnnm        ",
"       nm.mnm       ",
"       n..anm       ",
"       nmamnm       ",
"       mnnnmm       ",
"        mmmmm       ",
"        mmmmm       "};
