/* XPM */
static char *top_dis_xpm[] = {
"20 20 3 1",
"  c None	s mask",
"# c lightgray	s shade0",
"h c grey50	s shade2",
"                    ",
"         h          ",
"        h h         ",
"       h # h        ",
"      h #   h       ",
"     h #     h      ",
"    hhhh   hhhh     ",
"     ##h#  h####    ",
"       h#  h#       ",
"       h#  h#       ",
"       h#  h#       ",
"       hhhhh#       ",
"        #####       ",
"        hhh         ",
"       h ##h        ",
"       h#  h#       ",
"       h#  h#       ",
"        hhh #       ",
"         # #        ",
"                    "};
