/* XPM */
static char * vertical_xpm[] = {
/* width height num_colors chars_per_pixel */
"7 20 4 1",
/* colors */
"  c None	s mask",
"X c darkgray	s shade2",
"+ c lightgray	s shade0",
"# c black",
/* pixels */
"###### ",
" #  +  ",
"  #+   ",
"       ",
"       ",
"   +   ",
"+   X  ",
" X     ",
"   +   ",
"+   X  ",
" X     ",
"   +   ",
"+   X  ",
" X     ",
"   +   ",
"+   X  ",
" X     ",
"   +   ",
"+   X  ",
" X     "};
